# xmcd
#
# Track frame offsets: 
#        150
#        17020
#        33572
#        47835
#        67360
#        85785
#        109750
#        132070
#        151982
#        171352
#        189115
#        210180
#
# Disc length: 2981 seconds
#
# Revision: 1
# Processed by: cddbd v1.5.2PL0 Copyright (c) Steve Scherf et al.
# Submitted via: ExactAudioCopyFreeDBPlugin 1.0
#
DISCID=990ba30c
DTITLE=Luboš Pospíšil and Bio-graf - Route 66: Exit 2 1998-2016 [CD 1 - 
DTITLE=Můžem si za to oba)
DYEAR=2016
DGENRE=Blues
TTITLE0=Highway za Petrem Kalandrou
TTITLE1=Toulavá kočka
TTITLE2=Můžem si za to oba
TTITLE3=Pán Fatamorgán
TTITLE4=Trpaslíci
TTITLE5=Loučení s andělem
TTITLE6=Včelí královna
TTITLE7=Uprostřed noci
TTITLE8=Drahá
TTITLE9=Jack a Jim
TTITLE10=Příběh
TTITLE11=Johny a Jiří W.
EXTD=
EXTT0=
EXTT1=
EXTT2=
EXTT3=
EXTT4=
EXTT5=
EXTT6=
EXTT7=
EXTT8=
EXTT9=
EXTT10=
EXTT11=
PLAYORDER=
